<?xml version="1.0" encoding="UTF-8" standalone="no"?>
<!-- Uploaded to: SVG Repo, www.svgrepo.com, Generator: SVG Repo Mixer Tools -->

<svg
   fill="#000000"
   height="800"
   width="404.11612"
   version="1.1"
   id="Layer_1"
   viewBox="0 0 156.595 310"
   xml:space="preserve"
   sodipodi:docname="facebook-svgrepo-com.svg"
   inkscape:version="1.3.2 (091e20e, 2023-11-25)"
   xmlns:inkscape="http://www.inkscape.org/namespaces/inkscape"
   xmlns:sodipodi="http://sodipodi.sourceforge.net/DTD/sodipodi-0.dtd"
   xmlns="http://www.w3.org/2000/svg"
   xmlns:svg="http://www.w3.org/2000/svg"><defs
   id="defs1" /><sodipodi:namedview
   id="namedview1"
   pagecolor="#ffffff"
   bordercolor="#000000"
   borderopacity="0.25"
   inkscape:showpageshadow="2"
   inkscape:pageopacity="0.0"
   inkscape:pagecheckerboard="0"
   inkscape:deskcolor="#d1d1d1"
   inkscape:zoom="0.295"
   inkscape:cx="201.69492"
   inkscape:cy="400"
   inkscape:window-width="1376"
   inkscape:window-height="1025"
   inkscape:window-x="69"
   inkscape:window-y="50"
   inkscape:window-maximized="0"
   inkscape:current-layer="Layer_1" />
<g
   id="XMLID_834_"
   style="fill:#ffffff"
   transform="translate(-76.703)">
	<path
   id="XMLID_835_"
   d="m 81.703,165.106 h 33.981 V 305 c 0,2.762 2.238,5 5,5 H 178.3 c 2.762,0 5,-2.238 5,-5 V 165.765 h 39.064 c 2.54,0 4.677,-1.906 4.967,-4.429 l 5.933,-51.502 c 0.163,-1.417 -0.286,-2.836 -1.234,-3.899 -0.949,-1.064 -2.307,-1.673 -3.732,-1.673 H 183.302 V 71.978 c 0,-9.732 5.24,-14.667 15.576,-14.667 1.473,0 29.42,0 29.42,0 2.762,0 5,-2.239 5,-5 V 5.037 c 0,-2.762 -2.238,-5 -5,-5 H 187.753 C 187.467,0.023 186.832,0 185.896,0 178.861,0 154.408,1.381 135.092,19.151 113.69,38.843 116.665,62.421 117.376,66.509 v 37.752 H 81.703 c -2.762,0 -5,2.238 -5,5 v 50.844 c 0,2.762 2.238,5.001 5,5.001 z"
   style="fill:#ffffff" />
</g>
</svg>
