<?xml version="1.0" encoding="UTF-8" standalone="no"?>
<!-- Generator: Adobe Illustrator 23.0.3, SVG Export Plug-In . SVG Version: 6.00 Build 0)  -->

<svg
   id="Layer_1"
   x="0px"
   y="0px"
   viewBox="0 0 1127.0001 361.79999"
   xml:space="preserve"
   version="1.1"
   sodipodi:docname="logo-loko.svg"
   width="1127.0001"
   height="361.79999"
   inkscape:version="1.3.2 (091e20e, 2023-11-25)"
   xmlns:inkscape="http://www.inkscape.org/namespaces/inkscape"
   xmlns:sodipodi="http://sodipodi.sourceforge.net/DTD/sodipodi-0.dtd"
   xmlns="http://www.w3.org/2000/svg"
   xmlns:svg="http://www.w3.org/2000/svg"><defs
   id="defs29" /><sodipodi:namedview
   id="namedview29"
   pagecolor="#ffffff"
   bordercolor="#000000"
   borderopacity="0.25"
   inkscape:showpageshadow="2"
   inkscape:pageopacity="0.0"
   inkscape:pagecheckerboard="0"
   inkscape:deskcolor="#d1d1d1"
   showgrid="false"
   inkscape:zoom="0.51315504"
   inkscape:cx="564.15698"
   inkscape:cy="229.95"
   inkscape:window-width="1376"
   inkscape:window-height="449"
   inkscape:window-x="69"
   inkscape:window-y="50"
   inkscape:window-maximized="0"
   inkscape:current-layer="LOKO_Centraal_kopie"><inkscape:grid
     id="grid29"
     units="px"
     originx="9.2492978e-05"
     originy="0"
     spacingx="1"
     spacingy="1"
     empcolor="#0099e5"
     empopacity="0.30196078"
     color="#0099e5"
     opacity="0.14901961"
     empspacing="5"
     dotted="false"
     gridanglex="30"
     gridanglez="30"
     visible="false" /></sodipodi:namedview>
<style
   type="text/css"
   id="style1">
	.st0{fill:#FFFFFF;}
	.st1{display:none;}
	.st2{display:inline;fill:none;}
</style>
<g
   id="LOKO_Centraal_kopie"
   transform="translate(9.2492979e-5)">
	<path
   class="st0"
   d="m 180.9,361.8 c 99.9,0 180.9,-81 180.9,-180.9 C 361.8,81 280.8,0 180.9,0 81,0 0,81 0,180.9 -0.1,280.8 80.9,361.8 180.9,361.8 Z M 137.2,55 h 24.9 v 225.4 h 96 v 24.1 H 137.2 Z"
   id="path1" />
	<path
   class="st0"
   d="m 649.2,179.7 c 0,-36.9 -12.7,-67.9 -38.2,-93.1 -25.5,-25.2 -57.1,-37.8 -94.9,-37.8 -23.3,0 -45,5.8 -65,17.4 -20,11.6 -35.8,27.6 -47.4,48.1 -11.6,20.5 -17.4,42.7 -17.4,66.6 0,36 12.7,66.6 38.2,91.9 25.5,25.3 56.7,38 93.7,38 36.5,0 67.5,-12.7 92.9,-38.2 25.4,-25.4 38.1,-56.4 38.1,-92.9 z M 571,272.4 c -16.5,9.4 -34.4,14.1 -53.8,14.1 -29,0 -53.8,-10.2 -74.3,-30.6 -20.5,-20.4 -30.8,-45.5 -30.8,-75.1 0,-20 4.6,-38.2 13.9,-54.5 9.3,-16.3 22.2,-29.2 38.7,-38.9 16.5,-9.6 34,-14.4 52.5,-14.4 18.8,0 36.6,4.8 53.3,14.4 16.8,9.6 29.8,22.4 39,38.4 9.2,16 13.8,33.9 13.8,53.7 0,19.9 -4.6,38 -13.8,54.3 -9.2,16.4 -22,29.2 -38.5,38.6 z"
   id="path2" />
	<polygon
   class="st0"
   points="721.1,148.6 721.1,55 695.7,55 695.7,304.5 721.1,304.5 721.1,188.3 830.4,304.5 863.6,304.5 734.5,166.9 854.3,55 820.8,55 "
   id="polygon2" />
	<path
   class="st0"
   d="m 1088.9,272.6 c 25.4,-25.4 38.1,-56.4 38.1,-92.9 0,-36.9 -12.7,-67.9 -38.2,-93.1 -25.5,-25.2 -57.1,-37.8 -94.9,-37.8 -23.3,0 -45,5.8 -65,17.4 -20,11.6 -35.8,27.6 -47.4,48.1 -11.6,20.5 -17.4,42.7 -17.4,66.6 0,36 12.7,66.6 38.2,91.9 25.5,25.3 56.7,38 93.7,38 36.5,-0.1 67.5,-12.8 92.9,-38.2 z M 920.7,255.9 c -20.5,-20.4 -30.8,-45.5 -30.8,-75.1 0,-20 4.6,-38.2 13.9,-54.5 C 913.1,110 926,97.1 942.5,87.4 959,77.8 976.5,73 995,73 c 18.8,0 36.6,4.8 53.3,14.4 16.8,9.6 29.8,22.4 39,38.4 9.2,16 13.8,33.9 13.8,53.7 0,19.9 -4.6,38 -13.8,54.3 -9.2,16.3 -22.1,29.1 -38.6,38.5 -16.5,9.4 -34.4,14.1 -53.8,14.1 -28.8,0.1 -53.6,-10.1 -74.2,-30.5 z"
   id="path3" />
	
</g>
<g
   id="Guides"
   class="st1"
   transform="translate(9.2492979e-5)">
	<path
   class="st2"
   d="m 994,48.7 c 37.8,0 69.4,12.6 94.9,37.8 25.5,25.2 38.2,56.2 38.2,93.1 0,36.5 -12.7,67.5 -38.1,92.9 -25.4,25.4 -56.4,38.2 -92.9,38.2 -37,0 -68.2,-12.7 -93.7,-38 -25.5,-25.3 -38.2,-56 -38.2,-91.9 0,-24 5.8,-46.2 17.4,-66.6 C 893.2,93.8 909,77.7 929,66.1 949,54.5 970.7,48.7 994,48.7 Z"
   id="path29" />
</g>
</svg>
