<?xml version="1.0" encoding="UTF-8"?><svg id="b" xmlns="http://www.w3.org/2000/svg" viewBox="0 0 995 995"><g id="c"><rect id="d" width="995" height="995" rx="100" ry="100"/></g><g id="e"><path id="f" d="M396.74,363.63l-.37,6.4-.75,6.4-1.12,6.03-1.87,8.28-1.87,5.27-3.37,7.53-2.62,4.9-4.49,6.78-3.75,4.52-4.49,4.52-4.49,4.14-7.49,4.9-4.87,3.39-5.62,3.01-5.24,2.64-8.61,3.01-11.23,3.77-5.99,1.13-9.36,1.51-5.62.75-8.24.75-5.24.38-8.61.38-17.98,1.13h-8.24l-5.24-.38-8.61-.75-5.62-.75-6.37-1.13-5.62-1.88-8.24-2.64-5.24-2.64-5.62-2.64-5.24-2.64-4.87-3.01-11.98-8.28-4.49-3.77-6.74-5.27-4.49-3.77-4.12-4.14-3-3.39-.37-2.64,1.87-3.39,1.5-1.88,3.75-4.14,10.49-9.79,3.37-4.14,6.37-9.79,3.37-4.14,3.74-4.14,4.12-2.26,4.12.75,4.12,3.01,11.98,8.28,5.62,3.01,5.24,2.64,8.61,4.14,5.62,1.88,5.99,1.88,5.99,1.13,8.61.38,5.99.38,23.59-1.51,5.99-.75,3-.75,5.62-2.26,4.87-3.01,3.74-3.77,1.87-2.64,2.25-5.65-.37-6.4-.75-3.01-3-5.27-1.87-2.26-4.87-3.77-3-1.13-5.62-2.26-6.37-1.51-6.37-1.13-35.58-3.39-11.23-2.26-5.99-1.51-8.24-3.01-5.62-1.88-5.62-2.64-12.73-6.4-4.87-3.39-5.62-3.39-4.87-3.39-6.37-5.27-3.37-4.9-3.37-5.65-2.25-5.65-2.62-7.91-1.12-5.65-1.12-8.28-.75-12.05.37-6.02.75-9.04,1.12-5.65,1.5-4.9,1.87-5.65,3.75-8.28,2.62-5.27,3-4.52,3.74-4.14,5.99-5.65,4.87-3.77,4.87-3.39,5.24-2.64,7.12-4.14,11.23-4.52,5.62-1.88,8.61-1.51,5.99-1.13,11.23-1.51,8.24-1.51,5.99-.75,5.62-.38h5.99l11.23,1.13,5.62.75,2.62.75,5.99.75,12.73,2.26,6.37,1.51,5.99,1.88,6.37,1.88,5.99,2.26,5.62,2.64,5.62,2.26,7.12,4.14,5.24,2.64,4.87,3.39,3.37,3.39v3.77l-2.25,4.14-4.12,7.53-3,4.52-14.23,18.83-4.12,5.27-4.49,3.77-3,1.13-2.62-.38-3.75-1.88-5.62-3.39-5.62-2.26-2.62-1.13-5.62-1.88-3-.75-6.37-1.51-8.61-1.88-5.99-.38-9.74-.75h-9.74l-6.37.38-6.37,1.13-5.99,1.88-2.25,1.13-4.49,3.39-1.87,2.26-2.62,5.27-.75,6.03,1.12,4.9,3,4.9,4.12,3.77,4.49,2.26,2.62,1.13,5.62,1.13,9.36,1.13,12.73.75,6.37,1.13,12.73,3.01,11.98,3.77,8.61,1.88,5.62,1.51,10.49,3.77,7.49,3.39,5.24,2.64,5.24,3.01,4.87,3.01,10.86,9.04,4.12,4.52,3.74,4.52,4.49,6.78,3,4.9,2.62,5.65,1.5,5.65,1.5,8.28.75,5.65.37,6.4Z" style="fill:#f1f1f1;"/><path id="g" d="M597.14,555.67l17.48-.38,23.3,1.51,4.73.38,2.91.75,2.18,3.01,1.46,3.77,1.46,5.27,3.64,12.43,1.82,6.03,8.74,19.58,2.18,6.02,7.28,19.96,2.18,6.03,7.28,23.72,2.18,6.03,8.01,23.35,9.1,30.13,1.82,4.14,2.55,1.51,3.28-1.51,2.18-4.14,8.74-23.35,1.82-6.02,5.83-24.48,1.82-6.03,10.19-22.59,1.82-6.03,6.19-20.71,1.82-5.65,9.1-19.96,1.82-5.65,3.64-13.93,2.18-6.4,2.91-4.9,2.55-1.51,4.37-.75h2.55l5.83-.38,9.1.75h23.3l16.75-1.13,6.55.75,4.37,1.13,2.18,2.26,1.09,3.39-1.09,4.9-1.09,3.39-2.18,6.03-5.1,10.17-2.55,5.65-6.55,21.09-2.55,5.65-9.47,19.96-2.55,5.65-6.55,20.71-2.18,6.03-7.65,20.33-2.18,6.03-8.01,20.33-2.55,5.65-9.83,19.96-2.55,5.65-8.01,20.33-2.18,6.03-8.74,19.58-2.18,6.02-8.37,20.33-1.46,4.14-2.18,1.51-4.37.38-26.58-.38-5.83.38-20.39,1.88-6.19.38-4.73-.75-2.55-2.64-2.18-4.52-8.01-19.96-2.18-5.65-9.47-20.71-2.18-5.65-8.01-19.96-2.18-6.02-6.55-20.71-2.18-6.03-8.74-19.96-2.18-5.65-9.47-20.71-2.18-5.65-7.28-20.33-2.55-6.02-8.74-19.58-2.18-6.03-6.55-21.09-2.18-5.65-6.55-10.92-2.18-5.65-1.09-3.39-.73-4.9,1.09-3.39,2.55-2.26,4-1.13,2.18-.38h5.46l16.38,1.13Z" style="fill:#f1f1f1;"/></g><g id="h"><g id="i"><polygon points="463.28 483.63 467.45 467.45 307.46 307.46 428.28 475.29 463.28 483.63"/><polygon points="510.83 454.22 467.45 467.45 307.46 307.46 467.14 419.85 510.83 454.22"/><polygon points="518.76 512.77 533.92 527.93 687.59 687.59 531.39 577.66 518.76 512.77"/><polygon points="507.06 475.75 524.35 530.6 687.51 687.6 571.23 525.96 507.06 475.75"/></g><g id="j"><polygon points="322.46 322.46 475.63 430.27 497.52 297.36 497.52 497.52 297.36 497.52 432.46 475.27 322.46 322.46" style="fill:#9f1e1e; stroke:#9f1e1e; stroke-miterlimit:10; stroke-width:.25px;"/><polygon points="672.59 672.59 519.41 564.78 497.52 697.68 497.52 497.52 697.68 497.52 562.58 519.78 672.59 672.59" style="fill:#9f1e1e; stroke:#9f1e1e; stroke-miterlimit:10; stroke-width:.25px;"/><polygon points="775.73 218.21 564.78 475.63 697.68 497.52 497.52 497.52 497.52 297.36 519.18 428.87 775.73 218.21" style="fill:#af1e1e; stroke:#af1e1e; stroke-miterlimit:10; stroke-width:.25px;"/><polygon points="218.21 775.73 475.63 564.78 497.52 697.68 497.52 497.52 297.36 497.52 428.87 519.18 218.21 775.73" style="fill:#af1e1e; stroke:#af1e1e; stroke-miterlimit:10; stroke-width:.25px;"/></g></g></svg>